<svg id="Layer_1" data-name="Layer 1" xmlns="http://www.w3.org/2000/svg" xmlns:xlink="http://www.w3.org/1999/xlink" viewBox="0 0 160 160"><defs><style>.cls-1{fill:url(#linear-gradient);}.cls-2{fill:url(#linear-gradient-2);}.cls-3{fill:url(#linear-gradient-3);}</style><linearGradient id="linear-gradient" y1="87.92" x2="110.81" y2="87.92" gradientUnits="userSpaceOnUse"><stop offset="0" stop-color="#164da8"/><stop offset="1"/></linearGradient><linearGradient id="linear-gradient-2" x1="52.81" y1="71.16" x2="160" y2="71.16" xlink:href="#linear-gradient"/><linearGradient id="linear-gradient-3" x1="31.49" y1="80.05" x2="132.25" y2="80.05" gradientUnits="userSpaceOnUse"><stop offset="0" stop-color="#f08546"/><stop offset="1"/></linearGradient></defs><path class="cls-1" d="M110.81,128.23q0,15-10.59,24.3a35.72,35.72,0,0,1-11.28,6.73c-.71.1-1.44.19-2.16.27a77.06,77.06,0,0,1-17.52-.06V108H63V102.3H58.87V108H52.64v47.65l-1.3-.47c-.73-.27-1.45-.55-2.16-.85V115H42.94v-5.31H38.79V115H32.55V145q-1.77-1.32-3.46-2.71V108H22.86V102.3H18.7V108H12.47v15.37a81.24,81.24,0,0,1,19-107.5,35.1,35.1,0,0,0-1.76,11.24,39.58,39.58,0,0,0,4.83,19.65,57,57,0,0,0,12,15Q53.76,68,66.24,77q30.29,22,37.43,32.11T110.81,128.23Z"/><path class="cls-2" d="M160,80a80.51,80.51,0,0,1-29.19,62.32A49.12,49.12,0,0,0,134,124.24q0-16.74-11-31.55T78.52,53.76Q61.22,41.15,57,34.7A23.12,23.12,0,0,1,52.81,22q0-9,9.51-16.49A34.32,34.32,0,0,1,70.21.86c.71-.11,1.42-.2,2.14-.29a76.89,76.89,0,0,1,51.47,12A80.35,80.35,0,0,1,160,80Z"/><path class="cls-3" d="M132.25,124.24a49.12,49.12,0,0,1-3.17,18.08c-.1.26-.21.53-.32.79A77.4,77.4,0,0,1,88.48,160c.74-.23,1.47-.47,2.19-.74A35.72,35.72,0,0,0,102,152.53q10.59-9.3,10.59-24.3,0-9-7.14-19.12T68,77q-12.5-9-19.65-15.33a56.58,56.58,0,0,1-12-15,39.48,39.48,0,0,1-4.84-19.65,35.38,35.38,0,0,1,1.76-11.24c.1-.3.2-.59.31-.88A77.43,77.43,0,0,1,70.47.1c-.67.24-1.33.49-2,.76a34.32,34.32,0,0,0-7.89,4.67Q51.08,13,51.08,22a23.12,23.12,0,0,0,4.2,12.68q4.2,6.44,21.51,19.06,33.42,24.12,44.45,38.93T132.25,124.24Z"/></svg>